<?xml version="1.0" standalone="no"?>
<!DOCTYPE svg PUBLIC "-//W3C//DTD SVG 20010904//EN"
 "http://www.w3.org/TR/2001/REC-SVG-20010904/DTD/svg10.dtd">
<svg version="1.0" xmlns="http://www.w3.org/2000/svg"
 width="1024.000000pt" height="1024.000000pt" viewBox="0 0 1024.000000 1024.000000"
 preserveAspectRatio="xMidYMid meet">

<g transform="translate(0.000000,1024.000000) scale(0.100000,-0.100000)"
fill="#000000" stroke="none">
<path d="M5060 7330 c-904 -67 -1699 -628 -2048 -1447 -262 -611 -246 -1355
39 -1926 135 -268 255 -436 463 -642 377 -375 842 -601 1411 -686 115 -18 470
-18 590 -1 140 20 395 79 508 118 137 47 398 177 527 261 342 225 629 539 803
881 117 228 200 482 244 747 14 86 18 162 17 350 0 215 -3 255 -27 387 -61
336 -194 661 -378 925 -174 250 -347 423 -609 610 -296 210 -699 368 -1055
412 -123 15 -357 20 -485 11z m-105 -367 c-38 -99 -115 -213 -208 -307 -108
-109 -190 -167 -302 -212 -145 -60 -194 -69 -365 -69 -157 0 -201 7 -302 50
l-36 15 76 74 c213 205 577 392 920 472 62 15 222 33 231 27 2 -1 -4 -24 -14
-50z m483 -105 c-2 -13 -10 -23 -18 -23 -8 0 -16 10 -18 23 -3 17 2 22 18 22
16 0 21 -5 18 -22z m666 -184 c9 -8 16 -22 16 -29 0 -20 -28 -45 -50 -45 -18
0 -40 27 -40 49 0 14 29 41 45 41 7 0 21 -7 29 -16z m-460 -170 c25 -24 20
-63 -8 -76 -32 -14 -54 -5 -62 27 -4 18 -1 32 11 45 22 24 38 25 59 4z m954
-98 c6 -29 -15 -43 -35 -24 -14 14 -14 20 -3 33 16 19 34 15 38 -9z m-1462
-194 c-11 -11 -18 -12 -36 -2 -21 11 -21 12 -4 31 16 18 18 18 36 2 16 -14 17
-19 4 -31z m1846 -90 c37 -57 89 -142 115 -190 l46 -85 -17 -51 c-53 -151
-185 -371 -282 -470 -21 -22 -32 -37 -24 -34 8 4 54 22 101 42 78 32 296 144
326 168 13 11 25 -24 49 -151 13 -65 36 -370 29 -379 -1 -1 -47 -5 -101 -8
-129 -6 -263 -34 -410 -85 -211 -72 -339 -135 -781 -382 -679 -380 -998 -480
-1477 -464 -96 3 -201 12 -240 21 -38 9 -72 14 -74 11 -7 -7 56 -114 104 -176
53 -69 127 -127 223 -174 117 -58 204 -77 361 -77 281 -1 463 59 985 327 369
189 499 245 700 304 164 47 408 73 538 57 l58 -8 -7 -31 c-10 -50 -134 -299
-220 -444 l-79 -133 -165 -4 c-286 -7 -454 -55 -910 -258 -291 -130 -417 -179
-544 -212 -168 -44 -313 -52 -485 -29 l-44 6 31 -45 c46 -67 154 -163 240
-213 72 -42 75 -45 43 -45 -43 0 -244 30 -251 37 -3 3 0 8 6 10 50 18 52 55 4
72 -16 5 -36 22 -46 38 -10 15 -19 30 -21 32 -1 2 -38 -17 -81 -43 -43 -25
-84 -46 -90 -46 -6 0 -15 -7 -19 -15 -7 -12 -27 -6 -119 33 -206 89 -459 241
-591 354 l-63 53 0 249 c0 194 3 247 13 243 6 -2 65 -22 131 -43 l118 -39 82
-112 c85 -117 191 -268 364 -520 57 -84 107 -153 111 -153 3 0 18 10 33 23
l28 22 -63 91 c-34 50 -111 162 -171 250 -60 87 -147 212 -194 277 -61 87 -81
122 -73 130 16 16 14 73 -5 108 -15 30 -80 68 -116 69 -11 0 -45 42 -92 113
-40 61 -85 124 -99 139 -26 27 -26 28 -56 10 -17 -9 -31 -20 -31 -23 0 -3 27
-43 60 -89 32 -46 58 -85 57 -86 -1 -2 -56 16 -122 38 -92 32 -135 41 -185 41
-105 0 -189 -46 -222 -121 -11 -24 -23 -40 -28 -36 -13 15 -91 194 -126 292
-68 187 -108 459 -102 702 l3 134 54 -69 c85 -111 233 -248 348 -325 249 -167
571 -280 883 -311 163 -16 465 -6 607 20 223 42 501 140 698 247 255 139 439
278 640 485 232 238 360 438 456 708 36 101 79 277 79 322 0 28 2 30 17 18 9
-8 47 -61 85 -117z m-620 80 c61 -26 138 -99 166 -154 71 -144 42 -290 -81
-404 -66 -61 -126 -84 -221 -84 -120 0 -205 46 -272 147 -130 193 -31 456 193
513 58 14 162 6 215 -18z m-2554 -180 c3 -16 -2 -22 -17 -22 -24 0 -33 13 -25
35 9 23 38 14 42 -13z m480 6 c7 -7 12 -21 12 -33 0 -12 -5 -26 -12 -33 -7 -7
-21 -12 -33 -12 -12 0 -26 5 -33 12 -7 7 -12 21 -12 33 0 12 5 26 12 33 7 7
21 12 33 12 12 0 26 -5 33 -12z m627 -288 c9 -10 38 -27 64 -36 54 -20 73 -34
46 -34 -34 0 -100 -39 -119 -71 -10 -18 -24 -55 -31 -83 -13 -51 -13 -51 -14
-13 -2 57 -34 112 -84 142 -24 14 -54 25 -67 25 -32 0 -16 13 42 34 58 21 94
62 103 117 l7 42 18 -52 c9 -28 25 -60 35 -71z m633 78 c-2 -13 -10 -23 -18
-23 -8 0 -16 10 -18 23 -3 17 2 22 18 22 16 0 21 -5 18 -22z m-2178 -273 c0
-7 -6 -18 -14 -24 -20 -17 -44 13 -26 33 13 17 40 10 40 -9z m725 -29 c28 -43
-12 -89 -53 -60 -26 18 -28 46 -6 68 22 22 41 20 59 -8z m1508 -97 c13 -21 2
-65 -19 -73 -41 -16 -74 50 -42 82 16 16 48 11 61 -9z m-1993 -154 c10 -12 9
-18 -5 -31 -15 -15 -18 -15 -32 -1 -13 13 -14 19 -3 31 16 20 24 20 40 1z
m988 -67 c-2 -15 -10 -23 -23 -23 -13 0 -21 8 -23 23 -3 18 1 22 23 22 22 0
26 -4 23 -22z m-418 -212 c28 -35 -11 -93 -47 -70 -36 22 -23 84 17 84 10 0
23 -7 30 -14z m990 -48 c0 -5 -6 -15 -13 -22 -11 -11 -16 -11 -32 0 -18 13
-18 14 0 34 14 15 21 17 32 9 7 -6 13 -16 13 -21z m-460 -93 c0 -18 -5 -25
-20 -25 -20 0 -28 28 -13 43 15 16 33 6 33 -18z"/>
<path d="M3511 4513 c-90 -44 -94 -180 -7 -235 46 -29 127 -21 165 17 39 36
55 77 47 119 -18 93 -118 142 -205 99z"/>
</g>
</svg>
